<svg id="visual" viewBox="0 0 300 900" width="300" height="900" xmlns="http://www.w3.org/2000/svg" xmlns:xlink="http://www.w3.org/1999/xlink" version="1.1"><rect x="0" y="0" width="300" height="900" fill="#012030"></rect><g transform="translate(-104.97061962722807 913.8938488408323)"><path d="M287.2 -377.3C368.7 -336.1 428.8 -247.5 436.1 -157.6C443.5 -67.7 398.2 23.5 347.4 92.2C296.6 160.8 240.3 207 181.5 253.1C122.7 299.1 61.3 345.1 -14.8 365.4C-90.9 385.8 -181.8 380.6 -213 325.6C-244.3 270.5 -215.8 165.7 -197 94.5C-178.2 23.3 -169 -14.3 -150.6 -42.2C-132.2 -70 -104.7 -88.1 -78.1 -147.1C-51.4 -206.1 -25.7 -306.1 38.6 -359.2C102.9 -412.2 205.7 -418.5 287.2 -377.3" fill="#13678a"></path></g></svg>