<?xml version="1.0" standalone="no"?>
<!DOCTYPE svg PUBLIC "-//W3C//DTD SVG 20010904//EN"
 "http://www.w3.org/TR/2001/REC-SVG-20010904/DTD/svg10.dtd">
<svg version="1.0" xmlns="http://www.w3.org/2000/svg"
 width="191.000000pt" height="120.000000pt" viewBox="0 0 191.000000 120.000000"
 preserveAspectRatio="xMidYMid meet">

<g transform="translate(0.000000,120.000000) scale(0.100000,-0.100000)"
fill="#000000" stroke="none">
<path d="M885 1078 c-92 -123 -151 -283 -119 -325 22 -30 45 -4 65 75 20 78
55 151 99 203 l27 33 30 -45 c81 -118 107 -211 100 -359 -3 -76 -11 -122 -27
-165 -23 -61 -70 -145 -81 -145 -4 0 -9 19 -13 42 -11 67 -62 178 -116 250
-109 145 -305 248 -470 248 -45 0 -50 -3 -56 -25 -23 -92 80 -375 136 -375 35
0 34 28 -3 98 -40 77 -67 160 -67 209 0 34 0 34 38 27 244 -44 426 -217 477
-451 l7 -33 -84 45 c-102 54 -185 75 -303 75 -105 0 -182 -17 -280 -64 -68
-32 -151 -93 -169 -123 -21 -37 131 -148 258 -189 116 -38 267 -38 381 0 100
32 145 59 145 86 0 32 -25 34 -84 6 -159 -75 -349 -75 -500 1 -61 30 -116 70
-116 84 0 16 118 86 183 109 201 68 415 18 592 -140 163 -145 354 -202 554
-166 110 20 229 77 301 144 l55 52 -53 50 c-60 56 -168 112 -260 136 -72 18
-95 14 -90 -17 4 -26 16 -33 83 -48 60 -14 159 -61 200 -96 l30 -25 -30 -25
c-41 -35 -139 -83 -205 -100 -71 -19 -210 -19 -285 0 -67 17 -187 75 -193 93
-2 7 6 12 21 12 13 0 49 9 81 20 238 81 401 278 435 523 14 102 12 107 -58
107 -75 0 -160 -22 -247 -65 -79 -38 -108 -64 -98 -89 9 -24 38 -20 91 13 53
32 145 65 211 75 50 7 52 1 26 -98 -50 -192 -209 -357 -397 -411 -31 -9 -62
-15 -67 -13 -5 2 7 28 26 58 109 173 119 415 25 606 -45 89 -113 174 -141 174
-11 0 -38 -26 -65 -62z"/>
</g>
</svg>
